<svg xmlns="http://www.w3.org/2000/svg" xmlns:xlink="http://www.w3.org/1999/xlink" contentStyleType="text/css" height="770px" preserveAspectRatio="none" style="width:1081px;height:770px;background:#FFFFFF;" version="1.1" viewBox="0 0 1081 770" width="1081px" zoomAndPan="magnify"><defs/><g><!--cluster User Interface Layer--><g id="cluster_User Interface Layer"><path d="M8.5,459.08 L171.5,459.08 A3.75,3.75 0 0 1 174,461.58 L181,481.3769 L199.5,481.3769 A2.5,2.5 0 0 1 202,483.8769 L202,761.36 A2.5,2.5 0 0 1 199.5,763.86 L8.5,763.86 A2.5,2.5 0 0 1 6,761.36 L6,461.58 A2.5,2.5 0 0 1 8.5,459.08 " fill="none" style="stroke:#000000;stroke-width:1.5;"/><line style="stroke:#000000;stroke-width:1.5;" x1="6" x2="181" y1="481.3769" y2="481.3769"/><text fill="#000000" font-family="sans-serif" font-size="14" font-weight="bold" lengthAdjust="spacing" textLength="162" x="10" y="474.0751">User Interface Layer</text></g><!--cluster Application Layer--><g id="cluster_Application Layer"><path d="M278.5,14.15 L415.5,14.15 A3.75,3.75 0 0 1 418,16.65 L425,36.4469 L541.5,36.4469 A2.5,2.5 0 0 1 544,38.9469 L544,596.32 A2.5,2.5 0 0 1 541.5,598.82 L278.5,598.82 A2.5,2.5 0 0 1 276,596.32 L276,16.65 A2.5,2.5 0 0 1 278.5,14.15 " fill="none" style="stroke:#000000;stroke-width:1.5;"/><line style="stroke:#000000;stroke-width:1.5;" x1="276" x2="425" y1="36.4469" y2="36.4469"/><text fill="#000000" font-family="sans-serif" font-size="14" font-weight="bold" lengthAdjust="spacing" textLength="136" x="280" y="29.1451">Application Layer</text></g><!--cluster Integration Layer--><g id="cluster_Integration Layer"><path d="M828.5,162.89 L964.5,162.89 A3.75,3.75 0 0 1 967,165.39 L974,185.1869 L1071.5,185.1869 A2.5,2.5 0 0 1 1074,187.6869 L1074,432.58 A2.5,2.5 0 0 1 1071.5,435.08 L828.5,435.08 A2.5,2.5 0 0 1 826,432.58 L826,165.39 A2.5,2.5 0 0 1 828.5,162.89 " fill="none" style="stroke:#000000;stroke-width:1.5;"/><line style="stroke:#000000;stroke-width:1.5;" x1="826" x2="974" y1="185.1869" y2="185.1869"/><text fill="#000000" font-family="sans-serif" font-size="14" font-weight="bold" lengthAdjust="spacing" textLength="135" x="830" y="177.8851">Integration Layer</text></g><!--cluster Data Layer--><g id="cluster_Data Layer"><path d="M570.5,6 L655.5,6 A3.75,3.75 0 0 1 658,8.5 L665,28.2969 L799.5,28.2969 A2.5,2.5 0 0 1 802,30.7969 L802,291.98 A2.5,2.5 0 0 1 799.5,294.48 L570.5,294.48 A2.5,2.5 0 0 1 568,291.98 L568,8.5 A2.5,2.5 0 0 1 570.5,6 " fill="none" style="stroke:#000000;stroke-width:1.5;"/><line style="stroke:#000000;stroke-width:1.5;" x1="568" x2="665" y1="28.2969" y2="28.2969"/><text fill="#000000" font-family="sans-serif" font-size="14" font-weight="bold" lengthAdjust="spacing" textLength="84" x="572" y="20.9951">Data Layer</text></g><!--cluster External Systems--><g id="cluster_External Systems"><path d="M852.5,467.23 L989.5,467.23 A3.75,3.75 0 0 1 992,469.73 L999,489.5269 L1047.5,489.5269 A2.5,2.5 0 0 1 1050,492.0269 L1050,596.32 A2.5,2.5 0 0 1 1047.5,598.82 L852.5,598.82 A2.5,2.5 0 0 1 850,596.32 L850,469.73 A2.5,2.5 0 0 1 852.5,467.23 " fill="none" style="stroke:#000000;stroke-width:1.5;"/><line style="stroke:#000000;stroke-width:1.5;" x1="850" x2="999" y1="489.5269" y2="489.5269"/><text fill="#000000" font-family="sans-serif" font-size="14" font-weight="bold" lengthAdjust="spacing" textLength="136" x="854" y="482.2251">External Systems</text></g><!--class Dashboard--><g id="elem_Dashboard"><rect codeLine="2" fill="#F1F1F1" height="96.8906" id="Dashboard" rx="2.5" ry="2.5" style="stroke:#181818;stroke-width:0.5;" width="141" x="45.5" y="650.97"/><ellipse cx="75.35" cy="666.97" fill="#ADD1B2" rx="11" ry="11" style="stroke:#181818;stroke-width:1.0;"/><path d="M78.3188,672.6106 Q77.7406,672.9075 77.1,673.0481 Q76.4594,673.2044 75.7563,673.2044 Q73.2563,673.2044 71.9281,671.5638 Q70.6156,669.9075 70.6156,666.7825 Q70.6156,663.6575 71.9281,662.0013 Q73.2563,660.345 75.7563,660.345 Q76.4594,660.345 77.1,660.5013 Q77.7563,660.6575 78.3188,660.9544 L78.3188,663.6731 Q77.6938,663.095 77.1,662.8294 Q76.5063,662.5481 75.8813,662.5481 Q74.5375,662.5481 73.85,663.6263 Q73.1625,664.6888 73.1625,666.7825 Q73.1625,668.8763 73.85,669.9544 Q74.5375,671.0169 75.8813,671.0169 Q76.5063,671.0169 77.1,670.7513 Q77.6938,670.47 78.3188,669.8919 L78.3188,672.6106 Z " fill="#000000"/><text fill="#000000" font-family="sans-serif" font-size="14" lengthAdjust="spacing" textLength="76" x="92.65" y="671.8167">Dashboard</text><line style="stroke:#181818;stroke-width:0.5;" x1="46.5" x2="185.5" y1="682.97" y2="682.97"/><rect fill="none" height="6" style="stroke:#C82930;stroke-width:1.0;" width="6" x="53.5" y="693.6184"/><text fill="#000000" font-family="sans-serif" font-size="14" lengthAdjust="spacing" textLength="115" x="65.5" y="699.9651">Manage Projects</text><rect fill="none" height="6" style="stroke:#C82930;stroke-width:1.0;" width="6" x="53.5" y="709.9153"/><text fill="#000000" font-family="sans-serif" font-size="14" lengthAdjust="spacing" textLength="98" x="65.5" y="716.262">View Progress</text><rect fill="none" height="6" style="stroke:#C82930;stroke-width:1.0;" width="6" x="53.5" y="726.2122"/><text fill="#000000" font-family="sans-serif" font-size="14" lengthAdjust="spacing" textLength="109" x="65.5" y="732.5589">Access Reports</text><line style="stroke:#181818;stroke-width:0.5;" x1="46.5" x2="185.5" y1="739.8606" y2="739.8606"/></g><!--class UserManagement--><g id="elem_UserManagement"><rect codeLine="7" fill="#F1F1F1" height="96.8906" id="UserManagement" rx="2.5" ry="2.5" style="stroke:#181818;stroke-width:0.5;" width="163" x="22.5" y="494.08"/><ellipse cx="41.1" cy="510.08" fill="#ADD1B2" rx="11" ry="11" style="stroke:#181818;stroke-width:1.0;"/><path d="M44.0688,515.7206 Q43.4906,516.0175 42.85,516.1581 Q42.2094,516.3144 41.5063,516.3144 Q39.0063,516.3144 37.6781,514.6738 Q36.3656,513.0175 36.3656,509.8925 Q36.3656,506.7675 37.6781,505.1113 Q39.0063,503.455 41.5063,503.455 Q42.2094,503.455 42.85,503.6113 Q43.5063,503.7675 44.0688,504.0644 L44.0688,506.7831 Q43.4438,506.205 42.85,505.9394 Q42.2563,505.6581 41.6313,505.6581 Q40.2875,505.6581 39.6,506.7363 Q38.9125,507.7988 38.9125,509.8925 Q38.9125,511.9863 39.6,513.0644 Q40.2875,514.1269 41.6313,514.1269 Q42.2563,514.1269 42.85,513.8613 Q43.4438,513.58 44.0688,513.0019 L44.0688,515.7206 Z " fill="#000000"/><text fill="#000000" font-family="sans-serif" font-size="14" lengthAdjust="spacing" textLength="123" x="55.9" y="514.9267">UserManagement</text><line style="stroke:#181818;stroke-width:0.5;" x1="23.5" x2="184.5" y1="526.08" y2="526.08"/><rect fill="none" height="6" style="stroke:#C82930;stroke-width:1.0;" width="6" x="30.5" y="536.7284"/><text fill="#000000" font-family="sans-serif" font-size="14" lengthAdjust="spacing" textLength="100" x="42.5" y="543.0751">Authentication</text><rect fill="none" height="6" style="stroke:#C82930;stroke-width:1.0;" width="6" x="30.5" y="553.0253"/><text fill="#000000" font-family="sans-serif" font-size="14" lengthAdjust="spacing" textLength="126" x="42.5" y="559.372">Role Management</text><rect fill="none" height="6" style="stroke:#C82930;stroke-width:1.0;" width="6" x="30.5" y="569.3222"/><text fill="#000000" font-family="sans-serif" font-size="14" lengthAdjust="spacing" textLength="137" x="42.5" y="575.6689">Permission Settings</text><line style="stroke:#181818;stroke-width:0.5;" x1="23.5" x2="184.5" y1="582.9706" y2="582.9706"/></g><!--class OnboardingAndInitialization--><g id="elem_OnboardingAndInitialization"><rect codeLine="15" fill="#F1F1F1" height="80.5938" id="OnboardingAndInitialization" rx="2.5" ry="2.5" style="stroke:#181818;stroke-width:0.5;" width="219" x="296.5" y="49.15"/><ellipse cx="311.5" cy="65.15" fill="#ADD1B2" rx="11" ry="11" style="stroke:#181818;stroke-width:1.0;"/><path d="M314.4688,70.7906 Q313.8906,71.0875 313.25,71.2281 Q312.6094,71.3844 311.9063,71.3844 Q309.4063,71.3844 308.0781,69.7437 Q306.7656,68.0875 306.7656,64.9625 Q306.7656,61.8375 308.0781,60.1812 Q309.4063,58.525 311.9063,58.525 Q312.6094,58.525 313.25,58.6812 Q313.9063,58.8375 314.4688,59.1344 L314.4688,61.8531 Q313.8438,61.275 313.25,61.0094 Q312.6563,60.7281 312.0313,60.7281 Q310.6875,60.7281 310,61.8062 Q309.3125,62.8687 309.3125,64.9625 Q309.3125,67.0562 310,68.1344 Q310.6875,69.1969 312.0313,69.1969 Q312.6563,69.1969 313.25,68.9312 Q313.8438,68.65 314.4688,68.0719 L314.4688,70.7906 Z " fill="#000000"/><text fill="#000000" font-family="sans-serif" font-size="14" lengthAdjust="spacing" textLength="187" x="325.5" y="69.9967">OnboardingAndInitialization</text><line style="stroke:#181818;stroke-width:0.5;" x1="297.5" x2="514.5" y1="81.15" y2="81.15"/><rect fill="none" height="6" style="stroke:#C82930;stroke-width:1.0;" width="6" x="304.5" y="91.7984"/><text fill="#000000" font-family="sans-serif" font-size="14" lengthAdjust="spacing" textLength="126" x="316.5" y="98.1451">Register Websites</text><rect fill="none" height="6" style="stroke:#C82930;stroke-width:1.0;" width="6" x="304.5" y="108.0953"/><text fill="#000000" font-family="sans-serif" font-size="14" lengthAdjust="spacing" textLength="108" x="316.5" y="114.442">Scrape Content</text><line style="stroke:#181818;stroke-width:0.5;" x1="297.5" x2="514.5" y1="121.7437" y2="121.7437"/></g><!--class StringDetectionAndExtraction--><g id="elem_StringDetectionAndExtraction"><rect codeLine="19" fill="#F1F1F1" height="80.5938" id="StringDetectionAndExtraction" rx="2.5" ry="2.5" style="stroke:#181818;stroke-width:0.5;" width="235" x="292.5" y="197.89"/><ellipse cx="307.5" cy="213.89" fill="#ADD1B2" rx="11" ry="11" style="stroke:#181818;stroke-width:1.0;"/><path d="M310.4688,219.5306 Q309.8906,219.8275 309.25,219.9681 Q308.6094,220.1244 307.9063,220.1244 Q305.4063,220.1244 304.0781,218.4838 Q302.7656,216.8275 302.7656,213.7025 Q302.7656,210.5775 304.0781,208.9213 Q305.4063,207.265 307.9063,207.265 Q308.6094,207.265 309.25,207.4213 Q309.9063,207.5775 310.4688,207.8744 L310.4688,210.5931 Q309.8438,210.015 309.25,209.7494 Q308.6563,209.4681 308.0313,209.4681 Q306.6875,209.4681 306,210.5463 Q305.3125,211.6088 305.3125,213.7025 Q305.3125,215.7963 306,216.8744 Q306.6875,217.9369 308.0313,217.9369 Q308.6563,217.9369 309.25,217.6713 Q309.8438,217.39 310.4688,216.8119 L310.4688,219.5306 Z " fill="#000000"/><text fill="#000000" font-family="sans-serif" font-size="14" lengthAdjust="spacing" textLength="203" x="321.5" y="218.7367">StringDetectionAndExtraction</text><line style="stroke:#181818;stroke-width:0.5;" x1="293.5" x2="526.5" y1="229.89" y2="229.89"/><rect fill="none" height="6" style="stroke:#C82930;stroke-width:1.0;" width="6" x="300.5" y="240.5384"/><text fill="#000000" font-family="sans-serif" font-size="14" lengthAdjust="spacing" textLength="99" x="312.5" y="246.8851">Detect Strings</text><rect fill="none" height="6" style="stroke:#C82930;stroke-width:1.0;" width="6" x="300.5" y="256.8353"/><text fill="#000000" font-family="sans-serif" font-size="14" lengthAdjust="spacing" textLength="181" x="312.5" y="263.182">Replace with Placeholders</text><line style="stroke:#181818;stroke-width:0.5;" x1="293.5" x2="526.5" y1="270.4838" y2="270.4838"/></g><!--class WorkflowManagement--><g id="elem_WorkflowManagement"><rect codeLine="23" fill="#F1F1F1" height="80.5938" id="WorkflowManagement" rx="2.5" ry="2.5" style="stroke:#181818;stroke-width:0.5;" width="185" x="328.5" y="338.48"/><ellipse cx="343.5" cy="354.48" fill="#ADD1B2" rx="11" ry="11" style="stroke:#181818;stroke-width:1.0;"/><path d="M346.4688,360.1206 Q345.8906,360.4175 345.25,360.5581 Q344.6094,360.7144 343.9063,360.7144 Q341.4063,360.7144 340.0781,359.0738 Q338.7656,357.4175 338.7656,354.2925 Q338.7656,351.1675 340.0781,349.5113 Q341.4063,347.855 343.9063,347.855 Q344.6094,347.855 345.25,348.0113 Q345.9063,348.1675 346.4688,348.4644 L346.4688,351.1831 Q345.8438,350.605 345.25,350.3394 Q344.6563,350.0581 344.0313,350.0581 Q342.6875,350.0581 342,351.1363 Q341.3125,352.1988 341.3125,354.2925 Q341.3125,356.3863 342,357.4644 Q342.6875,358.5269 344.0313,358.5269 Q344.6563,358.5269 345.25,358.2613 Q345.8438,357.98 346.4688,357.4019 L346.4688,360.1206 Z " fill="#000000"/><text fill="#000000" font-family="sans-serif" font-size="14" lengthAdjust="spacing" textLength="153" x="357.5" y="359.3267">WorkflowManagement</text><line style="stroke:#181818;stroke-width:0.5;" x1="329.5" x2="512.5" y1="370.48" y2="370.48"/><rect fill="none" height="6" style="stroke:#C82930;stroke-width:1.0;" width="6" x="336.5" y="381.1284"/><text fill="#000000" font-family="sans-serif" font-size="14" lengthAdjust="spacing" textLength="137" x="348.5" y="387.4751">Handle File Updates</text><rect fill="none" height="6" style="stroke:#C82930;stroke-width:1.0;" width="6" x="336.5" y="397.4253"/><text fill="#000000" font-family="sans-serif" font-size="14" lengthAdjust="spacing" textLength="151" x="348.5" y="403.772">Synchronize with TMS</text><line style="stroke:#181818;stroke-width:0.5;" x1="329.5" x2="512.5" y1="411.0738" y2="411.0738"/></g><!--class QualityControl--><g id="elem_QualityControl"><rect codeLine="27" fill="#F1F1F1" height="80.5938" id="QualityControl" rx="2.5" ry="2.5" style="stroke:#181818;stroke-width:0.5;" width="191" x="325.5" y="502.23"/><ellipse cx="368.85" cy="518.23" fill="#ADD1B2" rx="11" ry="11" style="stroke:#181818;stroke-width:1.0;"/><path d="M371.8188,523.8706 Q371.2406,524.1675 370.6,524.3081 Q369.9594,524.4644 369.2563,524.4644 Q366.7563,524.4644 365.4281,522.8238 Q364.1156,521.1675 364.1156,518.0425 Q364.1156,514.9175 365.4281,513.2613 Q366.7563,511.605 369.2563,511.605 Q369.9594,511.605 370.6,511.7613 Q371.2563,511.9175 371.8188,512.2144 L371.8188,514.9331 Q371.1938,514.355 370.6,514.0894 Q370.0063,513.8081 369.3813,513.8081 Q368.0375,513.8081 367.35,514.8863 Q366.6625,515.9488 366.6625,518.0425 Q366.6625,520.1363 367.35,521.2144 Q368.0375,522.2769 369.3813,522.2769 Q370.0063,522.2769 370.6,522.0113 Q371.1938,521.73 371.8188,521.1519 L371.8188,523.8706 Z " fill="#000000"/><text fill="#000000" font-family="sans-serif" font-size="14" lengthAdjust="spacing" textLength="96" x="389.15" y="523.0767">QualityControl</text><line style="stroke:#181818;stroke-width:0.5;" x1="326.5" x2="515.5" y1="534.23" y2="534.23"/><rect fill="none" height="6" style="stroke:#C82930;stroke-width:1.0;" width="6" x="333.5" y="544.8784"/><text fill="#000000" font-family="sans-serif" font-size="14" lengthAdjust="spacing" textLength="137" x="345.5" y="551.2251">Review Translations</text><rect fill="none" height="6" style="stroke:#C82930;stroke-width:1.0;" width="6" x="333.5" y="561.1753"/><text fill="#000000" font-family="sans-serif" font-size="14" lengthAdjust="spacing" textLength="165" x="345.5" y="567.522">Manage Version Control</text><line style="stroke:#181818;stroke-width:0.5;" x1="326.5" x2="515.5" y1="574.8238" y2="574.8238"/></g><!--class APIGateway--><g id="elem_APIGateway"><rect codeLine="34" fill="#F1F1F1" height="80.5938" id="APIGateway" rx="2.5" ry="2.5" style="stroke:#181818;stroke-width:0.5;" width="189" x="855.5" y="197.89"/><ellipse cx="905.75" cy="213.89" fill="#ADD1B2" rx="11" ry="11" style="stroke:#181818;stroke-width:1.0;"/><path d="M908.7188,219.5306 Q908.1406,219.8275 907.5,219.9681 Q906.8594,220.1244 906.1563,220.1244 Q903.6563,220.1244 902.3281,218.4838 Q901.0156,216.8275 901.0156,213.7025 Q901.0156,210.5775 902.3281,208.9213 Q903.6563,207.265 906.1563,207.265 Q906.8594,207.265 907.5,207.4213 Q908.1563,207.5775 908.7188,207.8744 L908.7188,210.5931 Q908.0938,210.015 907.5,209.7494 Q906.9063,209.4681 906.2813,209.4681 Q904.9375,209.4681 904.25,210.5463 Q903.5625,211.6088 903.5625,213.7025 Q903.5625,215.7963 904.25,216.8744 Q904.9375,217.9369 906.2813,217.9369 Q906.9063,217.9369 907.5,217.6713 Q908.0938,217.39 908.7188,216.8119 L908.7188,219.5306 Z " fill="#000000"/><text fill="#000000" font-family="sans-serif" font-size="14" lengthAdjust="spacing" textLength="80" x="926.25" y="218.7367">APIGateway</text><line style="stroke:#181818;stroke-width:0.5;" x1="856.5" x2="1043.5" y1="229.89" y2="229.89"/><rect fill="none" height="6" style="stroke:#C82930;stroke-width:1.0;" width="6" x="863.5" y="240.5384"/><text fill="#000000" font-family="sans-serif" font-size="14" lengthAdjust="spacing" textLength="110" x="875.5" y="246.8851">Secure API Calls</text><rect fill="none" height="6" style="stroke:#C82930;stroke-width:1.0;" width="6" x="863.5" y="256.8353"/><text fill="#000000" font-family="sans-serif" font-size="14" lengthAdjust="spacing" textLength="163" x="875.5" y="263.182">Manage Data Exchange</text><line style="stroke:#181818;stroke-width:0.5;" x1="856.5" x2="1043.5" y1="270.4838" y2="270.4838"/></g><!--class TMSIntegration--><g id="elem_TMSIntegration"><rect codeLine="38" fill="#F1F1F1" height="80.5938" id="TMSIntegration" rx="2.5" ry="2.5" style="stroke:#181818;stroke-width:0.5;" width="216" x="842" y="338.48"/><ellipse cx="893.75" cy="354.48" fill="#ADD1B2" rx="11" ry="11" style="stroke:#181818;stroke-width:1.0;"/><path d="M896.7188,360.1206 Q896.1406,360.4175 895.5,360.5581 Q894.8594,360.7144 894.1563,360.7144 Q891.6563,360.7144 890.3281,359.0738 Q889.0156,357.4175 889.0156,354.2925 Q889.0156,351.1675 890.3281,349.5113 Q891.6563,347.855 894.1563,347.855 Q894.8594,347.855 895.5,348.0113 Q896.1563,348.1675 896.7188,348.4644 L896.7188,351.1831 Q896.0938,350.605 895.5,350.3394 Q894.9063,350.0581 894.2813,350.0581 Q892.9375,350.0581 892.25,351.1363 Q891.5625,352.1988 891.5625,354.2925 Q891.5625,356.3863 892.25,357.4644 Q892.9375,358.5269 894.2813,358.5269 Q894.9063,358.5269 895.5,358.2613 Q896.0938,357.98 896.7188,357.4019 L896.7188,360.1206 Z " fill="#000000"/><text fill="#000000" font-family="sans-serif" font-size="14" lengthAdjust="spacing" textLength="104" x="914.25" y="359.3267">TMSIntegration</text><line style="stroke:#181818;stroke-width:0.5;" x1="843" x2="1057" y1="370.48" y2="370.48"/><rect fill="none" height="6" style="stroke:#C82930;stroke-width:1.0;" width="6" x="850" y="381.1284"/><text fill="#000000" font-family="sans-serif" font-size="14" lengthAdjust="spacing" textLength="190" x="862" y="387.4751">Send Strings for Translation</text><rect fill="none" height="6" style="stroke:#C82930;stroke-width:1.0;" width="6" x="850" y="397.4253"/><text fill="#000000" font-family="sans-serif" font-size="14" lengthAdjust="spacing" textLength="184" x="862" y="403.772">Receive Translated Strings</text><line style="stroke:#181818;stroke-width:0.5;" x1="843" x2="1057" y1="411.0738" y2="411.0738"/></g><!--class DatabaseManagement--><g id="elem_DatabaseManagement"><rect codeLine="45" fill="#F1F1F1" height="96.8906" id="DatabaseManagement" rx="2.5" ry="2.5" style="stroke:#181818;stroke-width:0.5;" width="201" x="584.5" y="41"/><ellipse cx="604.9" cy="57" fill="#ADD1B2" rx="11" ry="11" style="stroke:#181818;stroke-width:1.0;"/><path d="M607.8688,62.6406 Q607.2906,62.9375 606.65,63.0781 Q606.0094,63.2344 605.3063,63.2344 Q602.8063,63.2344 601.4781,61.5938 Q600.1656,59.9375 600.1656,56.8125 Q600.1656,53.6875 601.4781,52.0313 Q602.8063,50.375 605.3063,50.375 Q606.0094,50.375 606.65,50.5313 Q607.3063,50.6875 607.8688,50.9844 L607.8688,53.7031 Q607.2438,53.125 606.65,52.8594 Q606.0563,52.5781 605.4313,52.5781 Q604.0875,52.5781 603.4,53.6563 Q602.7125,54.7188 602.7125,56.8125 Q602.7125,58.9063 603.4,59.9844 Q604.0875,61.0469 605.4313,61.0469 Q606.0563,61.0469 606.65,60.7813 Q607.2438,60.5 607.8688,59.9219 L607.8688,62.6406 Z " fill="#000000"/><text fill="#000000" font-family="sans-serif" font-size="14" lengthAdjust="spacing" textLength="157" x="620.1" y="61.8467">DatabaseManagement</text><line style="stroke:#181818;stroke-width:0.5;" x1="585.5" x2="784.5" y1="73" y2="73"/><rect fill="none" height="6" style="stroke:#C82930;stroke-width:1.0;" width="6" x="592.5" y="83.6484"/><text fill="#000000" font-family="sans-serif" font-size="14" lengthAdjust="spacing" textLength="109" x="604.5" y="89.9951">Store User Data</text><rect fill="none" height="6" style="stroke:#C82930;stroke-width:1.0;" width="6" x="592.5" y="99.9453"/><text fill="#000000" font-family="sans-serif" font-size="14" lengthAdjust="spacing" textLength="175" x="604.5" y="106.292">Manage Project Metadata</text><rect fill="none" height="6" style="stroke:#C82930;stroke-width:1.0;" width="6" x="592.5" y="116.2422"/><text fill="#000000" font-family="sans-serif" font-size="14" lengthAdjust="spacing" textLength="148" x="604.5" y="122.5889">Translation Memories</text><line style="stroke:#181818;stroke-width:0.5;" x1="585.5" x2="784.5" y1="129.8906" y2="129.8906"/></g><!--class FileStorage--><g id="elem_FileStorage"><rect codeLine="50" fill="#F1F1F1" height="80.5938" id="FileStorage" rx="2.5" ry="2.5" style="stroke:#181818;stroke-width:0.5;" width="196" x="585" y="197.89"/><ellipse cx="640.25" cy="213.89" fill="#ADD1B2" rx="11" ry="11" style="stroke:#181818;stroke-width:1.0;"/><path d="M643.2188,219.5306 Q642.6406,219.8275 642,219.9681 Q641.3594,220.1244 640.6563,220.1244 Q638.1563,220.1244 636.8281,218.4838 Q635.5156,216.8275 635.5156,213.7025 Q635.5156,210.5775 636.8281,208.9213 Q638.1563,207.265 640.6563,207.265 Q641.3594,207.265 642,207.4213 Q642.6563,207.5775 643.2188,207.8744 L643.2188,210.5931 Q642.5938,210.015 642,209.7494 Q641.4063,209.4681 640.7813,209.4681 Q639.4375,209.4681 638.75,210.5463 Q638.0625,211.6088 638.0625,213.7025 Q638.0625,215.7963 638.75,216.8744 Q639.4375,217.9369 640.7813,217.9369 Q641.4063,217.9369 642,217.6713 Q642.5938,217.39 643.2188,216.8119 L643.2188,219.5306 Z " fill="#000000"/><text fill="#000000" font-family="sans-serif" font-size="14" lengthAdjust="spacing" textLength="77" x="660.75" y="218.7367">FileStorage</text><line style="stroke:#181818;stroke-width:0.5;" x1="586" x2="780" y1="229.89" y2="229.89"/><rect fill="none" height="6" style="stroke:#C82930;stroke-width:1.0;" width="6" x="593" y="240.5384"/><text fill="#000000" font-family="sans-serif" font-size="14" lengthAdjust="spacing" textLength="132" x="605" y="246.8851">Store Website Files</text><rect fill="none" height="6" style="stroke:#C82930;stroke-width:1.0;" width="6" x="593" y="256.8353"/><text fill="#000000" font-family="sans-serif" font-size="14" lengthAdjust="spacing" textLength="170" x="605" y="263.182">Manage Translation Files</text><line style="stroke:#181818;stroke-width:0.5;" x1="586" x2="780" y1="270.4838" y2="270.4838"/></g><!--class TMS--><g id="elem_TMS"><rect codeLine="57" fill="#F1F1F1" height="80.5938" id="TMS" rx="2.5" ry="2.5" style="stroke:#181818;stroke-width:0.5;" width="169" x="865.5" y="502.23"/><ellipse cx="930.75" cy="518.23" fill="#ADD1B2" rx="11" ry="11" style="stroke:#181818;stroke-width:1.0;"/><path d="M933.7188,523.8706 Q933.1406,524.1675 932.5,524.3081 Q931.8594,524.4644 931.1563,524.4644 Q928.6563,524.4644 927.3281,522.8238 Q926.0156,521.1675 926.0156,518.0425 Q926.0156,514.9175 927.3281,513.2613 Q928.6563,511.605 931.1563,511.605 Q931.8594,511.605 932.5,511.7613 Q933.1563,511.9175 933.7188,512.2144 L933.7188,514.9331 Q933.0938,514.355 932.5,514.0894 Q931.9063,513.8081 931.2813,513.8081 Q929.9375,513.8081 929.25,514.8863 Q928.5625,515.9488 928.5625,518.0425 Q928.5625,520.1363 929.25,521.2144 Q929.9375,522.2769 931.2813,522.2769 Q931.9063,522.2769 932.5,522.0113 Q933.0938,521.73 933.7188,521.1519 L933.7188,523.8706 Z " fill="#000000"/><text fill="#000000" font-family="sans-serif" font-size="14" lengthAdjust="spacing" textLength="30" x="951.25" y="523.0767">TMS</text><line style="stroke:#181818;stroke-width:0.5;" x1="866.5" x2="1033.5" y1="534.23" y2="534.23"/><rect fill="none" height="6" style="stroke:#C82930;stroke-width:1.0;" width="6" x="873.5" y="544.8784"/><text fill="#000000" font-family="sans-serif" font-size="14" lengthAdjust="spacing" textLength="124" x="885.5" y="551.2251">Translate Content</text><rect fill="none" height="6" style="stroke:#C82930;stroke-width:1.0;" width="6" x="873.5" y="561.1753"/><text fill="#000000" font-family="sans-serif" font-size="14" lengthAdjust="spacing" textLength="143" x="885.5" y="567.522">Manage Translations</text><line style="stroke:#181818;stroke-width:0.5;" x1="866.5" x2="1033.5" y1="574.8238" y2="574.8238"/></g><!--link UserManagement to Dashboard--><g id="link_UserManagement_Dashboard"><path codeLine="63" d="M107.7,591.26 C109.16,610.1 110.3669,625.7279 111.8269,644.5879 " fill="none" id="UserManagement-to-Dashboard" style="stroke:#181818;stroke-width:1.0;"/><polygon fill="#181818" points="112.29,650.57,115.5834,641.2881,111.9041,645.5849,107.6073,641.9056,112.29,650.57" style="stroke:#181818;stroke-width:1.0;"/></g><!--link Dashboard to OnboardingAndInitialization--><g id="link_Dashboard_OnboardingAndInitialization"><path codeLine="64" d="M171.35,650.86 C183.53,637.77 195.13,622.75 203,606.82 C293.08,424.47 154.22,318.54 275,154.89 C282,145.41 285.9204,140.7592 295.6004,133.7492 " fill="none" id="Dashboard-to-OnboardingAndInitialization" style="stroke:#181818;stroke-width:1.0;"/><polygon fill="#181818" points="300.46,130.23,290.8245,132.269,296.4104,133.1626,295.5168,138.7485,300.46,130.23" style="stroke:#181818;stroke-width:1.0;"/></g><!--link OnboardingAndInitialization to StringDetectionAndExtraction--><g id="link_OnboardingAndInitialization_StringDetectionAndExtraction"><path codeLine="65" d="M407.08,130.16 C407.65,151.04 408.1863,170.5622 408.7563,191.4522 " fill="none" id="OnboardingAndInitialization-to-StringDetectionAndExtraction" style="stroke:#181818;stroke-width:1.0;"/><polygon fill="#181818" points="408.92,197.45,412.673,188.3442,408.7836,192.4519,404.676,188.5625,408.92,197.45" style="stroke:#181818;stroke-width:1.0;"/></g><!--link StringDetectionAndExtraction to WorkflowManagement--><g id="link_StringDetectionAndExtraction_WorkflowManagement"><path codeLine="66" d="M413.15,278.9 C414.63,297.46 415.8931,313.519 417.3731,332.079 " fill="none" id="StringDetectionAndExtraction-to-WorkflowManagement" style="stroke:#181818;stroke-width:1.0;"/><polygon fill="#181818" points="417.85,338.06,421.1219,328.7705,417.4526,333.0758,413.1473,329.4064,417.85,338.06" style="stroke:#181818;stroke-width:1.0;"/></g><!--link WorkflowManagement to QualityControl--><g id="link_WorkflowManagement_QualityControl"><path codeLine="67" d="M421,419.35 C421,444.41 421,470.71 421,495.81 " fill="none" id="WorkflowManagement-to-QualityControl" style="stroke:#181818;stroke-width:1.0;"/><polygon fill="#181818" points="421,501.81,425,492.81,421,496.81,417,492.81,421,501.81" style="stroke:#181818;stroke-width:1.0;"/></g><!--link QualityControl to Dashboard--><g id="link_QualityControl_Dashboard"><path codeLine="68" d="M342.85,583.21 C294.76,607.64 238.9495,635.9729 192.2495,659.6929 " fill="none" id="QualityControl-to-Dashboard" style="stroke:#181818;stroke-width:1.0;"/><polygon fill="#181818" points="186.9,662.41,196.7357,661.9006,191.3579,660.1457,193.1128,654.768,186.9,662.41" style="stroke:#181818;stroke-width:1.0;"/></g><!--link APIGateway to TMSIntegration--><g id="link_APIGateway_TMSIntegration"><path codeLine="69" d="M950,278.9 C950,297.46 950,313.5 950,332.06 " fill="none" id="APIGateway-to-TMSIntegration" style="stroke:#181818;stroke-width:1.0;"/><polygon fill="#181818" points="950,338.06,954,329.06,950,333.06,946,329.06,950,338.06" style="stroke:#181818;stroke-width:1.0;"/></g><!--link TMSIntegration to TMS--><g id="link_TMSIntegration_TMS"><path codeLine="70" d="M961.47,419.35 C963.67,444.41 964.2039,470.7329 962.0039,495.8329 " fill="none" id="TMSIntegration-to-TMS" style="stroke:#181818;stroke-width:1.0;"/><polygon fill="#181818" points="961.48,501.81,966.2506,493.1936,961.9166,496.8291,958.2811,492.4951,961.48,501.81" style="stroke:#181818;stroke-width:1.0;"/></g><!--link TMS to TMSIntegration--><g id="link_TMS_TMSIntegration"><path codeLine="71" d="M938.52,501.81 C936.32,476.71 935.8053,450.387 938.0053,425.327 " fill="none" id="TMS-to-TMSIntegration" style="stroke:#181818;stroke-width:1.0;"/><polygon fill="#181818" points="938.53,419.35,933.7582,427.9657,938.0927,424.3308,941.7276,428.6653,938.53,419.35" style="stroke:#181818;stroke-width:1.0;"/></g><!--link TMSIntegration to QualityControl--><g id="link_TMSIntegration_QualityControl"><path codeLine="72" d="M841.67,412.9 C746.15,442.11 614.0378,482.5057 522.4878,510.4957 " fill="none" id="TMSIntegration-to-QualityControl" style="stroke:#181818;stroke-width:1.0;"/><polygon fill="#181818" points="516.75,512.25,526.5262,513.4438,521.5315,510.7881,524.1872,505.7934,516.75,512.25" style="stroke:#181818;stroke-width:1.0;"/></g><!--link DatabaseManagement to FileStorage--><g id="link_DatabaseManagement_FileStorage"><path codeLine="73" d="M684.35,138.09 C684.09,157.34 683.8718,173.2906 683.6218,191.6306 " fill="none" id="DatabaseManagement-to-FileStorage" style="stroke:#181818;stroke-width:1.0;"/><polygon fill="#181818" points="683.54,197.63,687.6623,188.6854,683.6082,192.6305,679.663,188.5763,683.54,197.63" style="stroke:#181818;stroke-width:1.0;"/></g><!--link FileStorage to WorkflowManagement--><g id="link_FileStorage_WorkflowManagement"><path codeLine="74" d="M607.92,278.9 C572.84,297.46 536.4735,316.6941 501.3935,335.2541 " fill="none" id="FileStorage-to-WorkflowManagement" style="stroke:#181818;stroke-width:1.0;"/><polygon fill="#181818" points="496.09,338.06,505.9158,337.3867,500.5096,335.7217,502.1746,330.3155,496.09,338.06" style="stroke:#181818;stroke-width:1.0;"/></g><!--SRC=[ZLJRRjim37ttLmXzpoyC29fk2x2YMTpBCoCpjbP5CYYbQJhqtqScJYFPJZ0_105lXuSyL0lw5MfKDqy1ISrTH5g3HlKBzaWtwc-X-DCMGb0p2CtA0rMTLRw9kWSd-GloVr37a7YU3Ux4NXE6r3xLcWrgYQsdBk4pWP56ZaKtw6A6DTt6Xcr6GpJU9OwbjwZEIObdWRGn8N2uAZ56u-eJucTHj2VoqxQrNTKnvW_km9kJfwwQEnCDMFDn34_xMs9j0azGlU0gc8Wfwr8JjAXkFO-uwp1bNKRYyZECF4GkopXtxv503p2E8LryoC1RAvlRcTYeXVnjlAsGXXD-yVIwjdvtOSe_mLKypk-6VvxQ2deyzautv9tvwA0Uxyi1mkyj3oZkXInvsvlHc-ZYaS05UnXX6AhfcTiMubs1aOs9KckwkB7fOlw36z_1FWClKMy9nQjkmTeHv1b4K7VlkW5Nuu0NSqs1yzAkEcr5hJsb33Fw6iqRVdcnobQPapmqCtg94LOGyC82o-YPvE6W9VBYiQfxZ53b4KdNxDvuCZWKa4X3GAJM4BWJ_o5gPC8fmZaa9yxQHt9WMMryJvkGq-SjPB1Viyokwn9eWjTxQYQJR-T7hZW_TsA_yWGKrvu7oRrssyNLmvViuRKM8mSiaVdL5RqZpDab1oAENDX5J-TTX9Z_CxhNoeXW9IhHKP5gQfpsFm00]--></g></svg>